<svg xmlns="http://www.w3.org/2000/svg" xmlns:xlink="http://www.w3.org/1999/xlink" width="180" zoomAndPan="magnify" viewBox="0 0 135 60" height="80" preserveAspectRatio="xMidYMid meet" version="1.0"><defs><g/><clipPath id="aa5858ae46"><path d="M 45.632812 2.457031 L 89.132812 2.457031 L 89.132812 39.957031 L 45.632812 39.957031 Z M 45.632812 2.457031 " clip-rule="nonzero"/></clipPath><clipPath id="388f2418cd"><rect x="0" width="129" y="0" height="15"/></clipPath></defs><g clip-path="url(#aa5858ae46)"><path fill="#ffffff" d="M 45.632812 2.457031 L 59.441406 2.457031 L 70.882812 20.238281 L 82.328125 2.457031 L 89.367188 2.457031 L 89.367188 40.0625 L 82.8125 40.0625 L 82.8125 13.09375 L 70.9375 30.824219 L 70.722656 30.824219 L 58.957031 13.203125 L 58.957031 40.0625 L 45.632812 40.0625 L 45.632812 34.195312 L 55.800781 34.195312 L 55.800781 31.429688 L 48.835938 31.429688 L 48.835938 30.480469 L 45.632812 30.480469 L 45.632812 30.132812 L 48.835938 30.132812 L 48.835938 29.140625 L 55.800781 29.140625 L 55.800781 26.300781 L 48.835938 26.300781 L 48.835938 25.511719 L 45.632812 25.511719 L 45.632812 25.164062 L 48.835938 25.164062 L 48.835938 24.011719 L 55.800781 24.011719 L 55.800781 21.449219 L 45.632812 21.449219 L 45.632812 21.074219 L 55.800781 21.074219 L 55.800781 18.304688 L 48.835938 18.304688 L 48.835938 17.355469 L 45.632812 17.355469 L 45.632812 17.007812 L 48.835938 17.007812 L 48.835938 16.019531 L 55.800781 16.019531 L 55.800781 13.179688 L 48.835938 13.179688 L 48.835938 12.390625 L 45.632812 12.390625 L 45.632812 12.039062 L 48.835938 12.039062 L 48.835938 10.890625 L 55.800781 10.890625 L 55.800781 8.324219 L 45.632812 8.324219 Z M 45.632812 2.457031 " fill-opacity="1" fill-rule="nonzero"/></g><g transform="matrix(1, 0, 0, 1, 3, 41)"><g clip-path="url(#388f2418cd)"><g fill="#ffffff" fill-opacity="1"><g transform="translate(1.819654, 11.120031)"><g><path d="M 2.828125 0 L 1.109375 0 L 1.109375 -9.34375 L 2.609375 -9.34375 L 5.828125 -4.984375 L 9.078125 -9.34375 L 10.5625 -9.34375 L 10.5625 0 L 8.859375 0 L 8.859375 -6.609375 L 6.0625 -2.78125 L 5.59375 -2.78125 L 2.828125 -6.625 Z M 2.828125 0 "/></g></g></g><g fill="#ffffff" fill-opacity="1"><g transform="translate(13.484244, 11.120031)"><g><path d="M 3.796875 0.21875 C 3.328125 0.21875 2.890625 0.125 2.484375 -0.0625 C 2.078125 -0.257812 1.722656 -0.53125 1.421875 -0.875 C 1.117188 -1.21875 0.882812 -1.613281 0.71875 -2.0625 C 0.550781 -2.519531 0.46875 -3.007812 0.46875 -3.53125 C 0.46875 -4.050781 0.550781 -4.535156 0.71875 -4.984375 C 0.882812 -5.441406 1.117188 -5.84375 1.421875 -6.1875 C 1.722656 -6.53125 2.078125 -6.796875 2.484375 -6.984375 C 2.890625 -7.179688 3.328125 -7.28125 3.796875 -7.28125 C 4.367188 -7.28125 4.878906 -7.15625 5.328125 -6.90625 C 5.785156 -6.65625 6.125 -6.3125 6.34375 -5.875 L 6.34375 -7.0625 L 7.921875 -7.0625 L 7.921875 0 L 6.34375 0 L 6.34375 -1.1875 C 6.113281 -0.75 5.773438 -0.40625 5.328125 -0.15625 C 4.878906 0.09375 4.367188 0.21875 3.796875 0.21875 Z M 4.203125 -1.328125 C 4.492188 -1.328125 4.765625 -1.378906 5.015625 -1.484375 C 5.265625 -1.597656 5.484375 -1.753906 5.671875 -1.953125 C 5.859375 -2.160156 6.003906 -2.394531 6.109375 -2.65625 C 6.222656 -2.925781 6.28125 -3.21875 6.28125 -3.53125 C 6.28125 -3.84375 6.222656 -4.128906 6.109375 -4.390625 C 6.003906 -4.660156 5.859375 -4.894531 5.671875 -5.09375 C 5.484375 -5.300781 5.265625 -5.457031 5.015625 -5.5625 C 4.765625 -5.675781 4.492188 -5.734375 4.203125 -5.734375 C 3.816406 -5.734375 3.46875 -5.640625 3.15625 -5.453125 C 2.84375 -5.273438 2.59375 -5.019531 2.40625 -4.6875 C 2.21875 -4.363281 2.125 -3.976562 2.125 -3.53125 C 2.125 -3.070312 2.21875 -2.675781 2.40625 -2.34375 C 2.59375 -2.019531 2.84375 -1.769531 3.15625 -1.59375 C 3.476562 -1.414062 3.828125 -1.328125 4.203125 -1.328125 Z M 4.203125 -1.328125 "/></g></g></g><g fill="#ffffff" fill-opacity="1"><g transform="translate(22.380392, 11.120031)"><g><path d="M 3.890625 0.21875 C 3.390625 0.21875 2.929688 0.125 2.515625 -0.0625 C 2.097656 -0.257812 1.734375 -0.53125 1.421875 -0.875 C 1.117188 -1.21875 0.882812 -1.613281 0.71875 -2.0625 C 0.550781 -2.519531 0.46875 -3.007812 0.46875 -3.53125 C 0.46875 -4.050781 0.550781 -4.535156 0.71875 -4.984375 C 0.882812 -5.441406 1.117188 -5.84375 1.421875 -6.1875 C 1.722656 -6.53125 2.082031 -6.796875 2.5 -6.984375 C 2.925781 -7.179688 3.394531 -7.28125 3.90625 -7.28125 C 4.289062 -7.28125 4.640625 -7.210938 4.953125 -7.078125 C 5.273438 -6.941406 5.546875 -6.769531 5.765625 -6.5625 C 5.992188 -6.351562 6.171875 -6.132812 6.296875 -5.90625 L 6.265625 -6.640625 L 6.265625 -9.671875 L 7.921875 -9.671875 L 7.921875 0 L 6.34375 0 L 6.34375 -1.1875 C 6.195312 -0.9375 6.007812 -0.703125 5.78125 -0.484375 C 5.550781 -0.273438 5.273438 -0.109375 4.953125 0.015625 C 4.640625 0.148438 4.285156 0.21875 3.890625 0.21875 Z M 4.1875 -1.3125 C 4.476562 -1.3125 4.75 -1.367188 5 -1.484375 C 5.25 -1.597656 5.46875 -1.753906 5.65625 -1.953125 C 5.851562 -2.160156 6.003906 -2.394531 6.109375 -2.65625 C 6.222656 -2.925781 6.28125 -3.21875 6.28125 -3.53125 C 6.28125 -3.84375 6.222656 -4.128906 6.109375 -4.390625 C 6.003906 -4.660156 5.859375 -4.894531 5.671875 -5.09375 C 5.484375 -5.300781 5.265625 -5.457031 5.015625 -5.5625 C 4.765625 -5.675781 4.488281 -5.734375 4.1875 -5.734375 C 3.800781 -5.734375 3.445312 -5.640625 3.125 -5.453125 C 2.8125 -5.265625 2.5625 -5.003906 2.375 -4.671875 C 2.195312 -4.335938 2.109375 -3.957031 2.109375 -3.53125 C 2.109375 -3.113281 2.195312 -2.738281 2.375 -2.40625 C 2.550781 -2.070312 2.796875 -1.804688 3.109375 -1.609375 C 3.429688 -1.410156 3.789062 -1.3125 4.1875 -1.3125 Z M 4.1875 -1.3125 "/></g></g></g><g fill="#ffffff" fill-opacity="1"><g transform="translate(31.262799, 11.120031)"><g><path d="M 2.640625 0 L 0.96875 0 L 0.96875 -9.671875 L 2.640625 -9.671875 L 2.640625 -6.796875 L 2.59375 -6.015625 C 2.8125 -6.390625 3.125 -6.691406 3.53125 -6.921875 C 3.945312 -7.160156 4.425781 -7.28125 4.96875 -7.28125 C 5.914062 -7.28125 6.625 -6.976562 7.09375 -6.375 C 7.570312 -5.769531 7.8125 -4.914062 7.8125 -3.8125 L 7.8125 0 L 6.140625 0 L 6.140625 -3.78125 C 6.140625 -4.476562 5.992188 -4.976562 5.703125 -5.28125 C 5.410156 -5.59375 5.015625 -5.75 4.515625 -5.75 C 4.265625 -5.75 4.023438 -5.695312 3.796875 -5.59375 C 3.578125 -5.488281 3.378906 -5.34375 3.203125 -5.15625 C 3.023438 -4.96875 2.882812 -4.738281 2.78125 -4.46875 C 2.6875 -4.207031 2.640625 -3.921875 2.640625 -3.609375 Z M 2.640625 0 "/></g></g></g><g fill="#ffffff" fill-opacity="1"><g transform="translate(39.987199, 11.120031)"><g><path d="M 4.15625 0.21875 C 3.675781 0.21875 3.234375 0.148438 2.828125 0.015625 C 2.429688 -0.109375 2.082031 -0.3125 1.78125 -0.59375 C 1.476562 -0.875 1.242188 -1.234375 1.078125 -1.671875 C 0.910156 -2.117188 0.828125 -2.660156 0.828125 -3.296875 L 0.828125 -7.0625 L 2.46875 -7.0625 L 2.46875 -3.34375 C 2.46875 -2.6875 2.609375 -2.1875 2.890625 -1.84375 C 3.171875 -1.5 3.585938 -1.328125 4.140625 -1.328125 C 4.703125 -1.328125 5.117188 -1.5 5.390625 -1.84375 C 5.671875 -2.195312 5.8125 -2.695312 5.8125 -3.34375 L 5.8125 -7.0625 L 7.46875 -7.0625 L 7.46875 -3.296875 C 7.46875 -2.660156 7.382812 -2.117188 7.21875 -1.671875 C 7.050781 -1.234375 6.816406 -0.875 6.515625 -0.59375 C 6.210938 -0.3125 5.859375 -0.109375 5.453125 0.015625 C 5.054688 0.148438 4.625 0.21875 4.15625 0.21875 Z M 4.15625 0.21875 "/></g></g></g><g fill="#ffffff" fill-opacity="1"><g transform="translate(48.271943, 11.120031)"><g><path d="M 3.515625 0.21875 C 3.003906 0.21875 2.554688 0.144531 2.171875 0 C 1.785156 -0.132812 1.46875 -0.316406 1.21875 -0.546875 C 0.96875 -0.785156 0.78125 -1.050781 0.65625 -1.34375 C 0.539062 -1.632812 0.484375 -1.9375 0.484375 -2.25 L 2.078125 -2.234375 C 2.085938 -1.921875 2.210938 -1.65625 2.453125 -1.4375 C 2.703125 -1.21875 3.0625 -1.109375 3.53125 -1.109375 C 3.957031 -1.109375 4.273438 -1.191406 4.484375 -1.359375 C 4.691406 -1.523438 4.796875 -1.738281 4.796875 -2 C 4.796875 -2.195312 4.738281 -2.351562 4.625 -2.46875 C 4.507812 -2.582031 4.335938 -2.671875 4.109375 -2.734375 C 3.890625 -2.804688 3.617188 -2.867188 3.296875 -2.921875 C 2.960938 -2.960938 2.640625 -3.03125 2.328125 -3.125 C 2.023438 -3.21875 1.753906 -3.347656 1.515625 -3.515625 C 1.285156 -3.691406 1.101562 -3.90625 0.96875 -4.15625 C 0.832031 -4.414062 0.765625 -4.726562 0.765625 -5.09375 C 0.765625 -5.53125 0.863281 -5.910156 1.0625 -6.234375 C 1.269531 -6.566406 1.570312 -6.820312 1.96875 -7 C 2.375 -7.1875 2.863281 -7.28125 3.4375 -7.28125 C 4 -7.28125 4.492188 -7.179688 4.921875 -6.984375 C 5.347656 -6.796875 5.679688 -6.53125 5.921875 -6.1875 C 6.160156 -5.851562 6.28125 -5.460938 6.28125 -5.015625 L 4.65625 -5.03125 C 4.632812 -5.289062 4.519531 -5.503906 4.3125 -5.671875 C 4.113281 -5.835938 3.820312 -5.921875 3.4375 -5.921875 C 3.082031 -5.921875 2.820312 -5.84375 2.65625 -5.6875 C 2.488281 -5.53125 2.40625 -5.347656 2.40625 -5.140625 C 2.40625 -4.960938 2.441406 -4.816406 2.515625 -4.703125 C 2.597656 -4.597656 2.742188 -4.507812 2.953125 -4.4375 C 3.171875 -4.375 3.484375 -4.304688 3.890625 -4.234375 C 4.253906 -4.179688 4.59375 -4.109375 4.90625 -4.015625 C 5.21875 -3.929688 5.492188 -3.804688 5.734375 -3.640625 C 5.972656 -3.484375 6.15625 -3.28125 6.28125 -3.03125 C 6.414062 -2.78125 6.484375 -2.46875 6.484375 -2.09375 C 6.484375 -1.570312 6.351562 -1.140625 6.09375 -0.796875 C 5.84375 -0.460938 5.492188 -0.207031 5.046875 -0.03125 C 4.597656 0.132812 4.085938 0.21875 3.515625 0.21875 Z M 3.515625 0.21875 "/></g></g></g><g fill="#ffffff" fill-opacity="1"><g transform="translate(55.155288, 11.120031)"><g><path d="M 2.640625 0 L 0.96875 0 L 0.96875 -9.671875 L 2.640625 -9.671875 L 2.640625 -6.796875 L 2.59375 -6.015625 C 2.8125 -6.390625 3.125 -6.691406 3.53125 -6.921875 C 3.945312 -7.160156 4.425781 -7.28125 4.96875 -7.28125 C 5.914062 -7.28125 6.625 -6.976562 7.09375 -6.375 C 7.570312 -5.769531 7.8125 -4.914062 7.8125 -3.8125 L 7.8125 0 L 6.140625 0 L 6.140625 -3.78125 C 6.140625 -4.476562 5.992188 -4.976562 5.703125 -5.28125 C 5.410156 -5.59375 5.015625 -5.75 4.515625 -5.75 C 4.265625 -5.75 4.023438 -5.695312 3.796875 -5.59375 C 3.578125 -5.488281 3.378906 -5.34375 3.203125 -5.15625 C 3.023438 -4.96875 2.882812 -4.738281 2.78125 -4.46875 C 2.6875 -4.207031 2.640625 -3.921875 2.640625 -3.609375 Z M 2.640625 0 "/></g></g></g><g fill="#ffffff" fill-opacity="1"><g transform="translate(63.879687, 11.120031)"><g><path d="M 3.796875 0.21875 C 3.328125 0.21875 2.890625 0.125 2.484375 -0.0625 C 2.078125 -0.257812 1.722656 -0.53125 1.421875 -0.875 C 1.117188 -1.21875 0.882812 -1.613281 0.71875 -2.0625 C 0.550781 -2.519531 0.46875 -3.007812 0.46875 -3.53125 C 0.46875 -4.050781 0.550781 -4.535156 0.71875 -4.984375 C 0.882812 -5.441406 1.117188 -5.84375 1.421875 -6.1875 C 1.722656 -6.53125 2.078125 -6.796875 2.484375 -6.984375 C 2.890625 -7.179688 3.328125 -7.28125 3.796875 -7.28125 C 4.367188 -7.28125 4.878906 -7.15625 5.328125 -6.90625 C 5.785156 -6.65625 6.125 -6.3125 6.34375 -5.875 L 6.34375 -7.0625 L 7.921875 -7.0625 L 7.921875 0 L 6.34375 0 L 6.34375 -1.1875 C 6.113281 -0.75 5.773438 -0.40625 5.328125 -0.15625 C 4.878906 0.09375 4.367188 0.21875 3.796875 0.21875 Z M 4.203125 -1.328125 C 4.492188 -1.328125 4.765625 -1.378906 5.015625 -1.484375 C 5.265625 -1.597656 5.484375 -1.753906 5.671875 -1.953125 C 5.859375 -2.160156 6.003906 -2.394531 6.109375 -2.65625 C 6.222656 -2.925781 6.28125 -3.21875 6.28125 -3.53125 C 6.28125 -3.84375 6.222656 -4.128906 6.109375 -4.390625 C 6.003906 -4.660156 5.859375 -4.894531 5.671875 -5.09375 C 5.484375 -5.300781 5.265625 -5.457031 5.015625 -5.5625 C 4.765625 -5.675781 4.492188 -5.734375 4.203125 -5.734375 C 3.816406 -5.734375 3.46875 -5.640625 3.15625 -5.453125 C 2.84375 -5.273438 2.59375 -5.019531 2.40625 -4.6875 C 2.21875 -4.363281 2.125 -3.976562 2.125 -3.53125 C 2.125 -3.070312 2.21875 -2.675781 2.40625 -2.34375 C 2.59375 -2.019531 2.84375 -1.769531 3.15625 -1.59375 C 3.476562 -1.414062 3.828125 -1.328125 4.203125 -1.328125 Z M 4.203125 -1.328125 "/></g></g></g><g fill="#ffffff" fill-opacity="1"><g transform="translate(72.775834, 11.120031)"><g><path d="M 2.640625 0 L 0.96875 0 L 0.96875 -9.6875 L 2.640625 -9.6875 Z M 2.640625 0 "/></g></g></g><g fill="#ffffff" fill-opacity="1"><g transform="translate(76.382385, 11.120031)"><g><path d="M 3.796875 0.21875 C 3.328125 0.21875 2.890625 0.125 2.484375 -0.0625 C 2.078125 -0.257812 1.722656 -0.53125 1.421875 -0.875 C 1.117188 -1.21875 0.882812 -1.613281 0.71875 -2.0625 C 0.550781 -2.519531 0.46875 -3.007812 0.46875 -3.53125 C 0.46875 -4.050781 0.550781 -4.535156 0.71875 -4.984375 C 0.882812 -5.441406 1.117188 -5.84375 1.421875 -6.1875 C 1.722656 -6.53125 2.078125 -6.796875 2.484375 -6.984375 C 2.890625 -7.179688 3.328125 -7.28125 3.796875 -7.28125 C 4.367188 -7.28125 4.878906 -7.15625 5.328125 -6.90625 C 5.785156 -6.65625 6.125 -6.3125 6.34375 -5.875 L 6.34375 -7.0625 L 7.921875 -7.0625 L 7.921875 0 L 6.34375 0 L 6.34375 -1.1875 C 6.113281 -0.75 5.773438 -0.40625 5.328125 -0.15625 C 4.878906 0.09375 4.367188 0.21875 3.796875 0.21875 Z M 4.203125 -1.328125 C 4.492188 -1.328125 4.765625 -1.378906 5.015625 -1.484375 C 5.265625 -1.597656 5.484375 -1.753906 5.671875 -1.953125 C 5.859375 -2.160156 6.003906 -2.394531 6.109375 -2.65625 C 6.222656 -2.925781 6.28125 -3.21875 6.28125 -3.53125 C 6.28125 -3.84375 6.222656 -4.128906 6.109375 -4.390625 C 6.003906 -4.660156 5.859375 -4.894531 5.671875 -5.09375 C 5.484375 -5.300781 5.265625 -5.457031 5.015625 -5.5625 C 4.765625 -5.675781 4.492188 -5.734375 4.203125 -5.734375 C 3.816406 -5.734375 3.46875 -5.640625 3.15625 -5.453125 C 2.84375 -5.273438 2.59375 -5.019531 2.40625 -4.6875 C 2.21875 -4.363281 2.125 -3.976562 2.125 -3.53125 C 2.125 -3.070312 2.21875 -2.675781 2.40625 -2.34375 C 2.59375 -2.019531 2.84375 -1.769531 3.15625 -1.59375 C 3.476562 -1.414062 3.828125 -1.328125 4.203125 -1.328125 Z M 4.203125 -1.328125 "/></g></g></g><g fill="#ffffff" fill-opacity="1"><g transform="translate(85.278532, 11.120031)"><g/></g></g><g fill="#ffffff" fill-opacity="1"><g transform="translate(88.706473, 11.120031)"><g><path d="M 2.828125 0 L 1.109375 0 L 1.109375 -9.34375 L 2.609375 -9.34375 L 5.828125 -4.984375 L 9.078125 -9.34375 L 10.5625 -9.34375 L 10.5625 0 L 8.859375 0 L 8.859375 -6.609375 L 6.0625 -2.78125 L 5.59375 -2.78125 L 2.828125 -6.625 Z M 2.828125 0 "/></g></g></g><g fill="#ffffff" fill-opacity="1"><g transform="translate(100.371063, 11.120031)"><g><path d="M 4.15625 0.21875 C 3.675781 0.21875 3.234375 0.148438 2.828125 0.015625 C 2.429688 -0.109375 2.082031 -0.3125 1.78125 -0.59375 C 1.476562 -0.875 1.242188 -1.234375 1.078125 -1.671875 C 0.910156 -2.117188 0.828125 -2.660156 0.828125 -3.296875 L 0.828125 -7.0625 L 2.46875 -7.0625 L 2.46875 -3.34375 C 2.46875 -2.6875 2.609375 -2.1875 2.890625 -1.84375 C 3.171875 -1.5 3.585938 -1.328125 4.140625 -1.328125 C 4.703125 -1.328125 5.117188 -1.5 5.390625 -1.84375 C 5.671875 -2.195312 5.8125 -2.695312 5.8125 -3.34375 L 5.8125 -7.0625 L 7.46875 -7.0625 L 7.46875 -3.296875 C 7.46875 -2.660156 7.382812 -2.117188 7.21875 -1.671875 C 7.050781 -1.234375 6.816406 -0.875 6.515625 -0.59375 C 6.210938 -0.3125 5.859375 -0.109375 5.453125 0.015625 C 5.054688 0.148438 4.625 0.21875 4.15625 0.21875 Z M 4.15625 0.21875 "/></g></g></g><g fill="#ffffff" fill-opacity="1"><g transform="translate(108.655808, 11.120031)"><g><path d="M 3.515625 0.21875 C 3.003906 0.21875 2.554688 0.144531 2.171875 0 C 1.785156 -0.132812 1.46875 -0.316406 1.21875 -0.546875 C 0.96875 -0.785156 0.78125 -1.050781 0.65625 -1.34375 C 0.539062 -1.632812 0.484375 -1.9375 0.484375 -2.25 L 2.078125 -2.234375 C 2.085938 -1.921875 2.210938 -1.65625 2.453125 -1.4375 C 2.703125 -1.21875 3.0625 -1.109375 3.53125 -1.109375 C 3.957031 -1.109375 4.273438 -1.191406 4.484375 -1.359375 C 4.691406 -1.523438 4.796875 -1.738281 4.796875 -2 C 4.796875 -2.195312 4.738281 -2.351562 4.625 -2.46875 C 4.507812 -2.582031 4.335938 -2.671875 4.109375 -2.734375 C 3.890625 -2.804688 3.617188 -2.867188 3.296875 -2.921875 C 2.960938 -2.960938 2.640625 -3.03125 2.328125 -3.125 C 2.023438 -3.21875 1.753906 -3.347656 1.515625 -3.515625 C 1.285156 -3.691406 1.101562 -3.90625 0.96875 -4.15625 C 0.832031 -4.414062 0.765625 -4.726562 0.765625 -5.09375 C 0.765625 -5.53125 0.863281 -5.910156 1.0625 -6.234375 C 1.269531 -6.566406 1.570312 -6.820312 1.96875 -7 C 2.375 -7.1875 2.863281 -7.28125 3.4375 -7.28125 C 4 -7.28125 4.492188 -7.179688 4.921875 -6.984375 C 5.347656 -6.796875 5.679688 -6.53125 5.921875 -6.1875 C 6.160156 -5.851562 6.28125 -5.460938 6.28125 -5.015625 L 4.65625 -5.03125 C 4.632812 -5.289062 4.519531 -5.503906 4.3125 -5.671875 C 4.113281 -5.835938 3.820312 -5.921875 3.4375 -5.921875 C 3.082031 -5.921875 2.820312 -5.84375 2.65625 -5.6875 C 2.488281 -5.53125 2.40625 -5.347656 2.40625 -5.140625 C 2.40625 -4.960938 2.441406 -4.816406 2.515625 -4.703125 C 2.597656 -4.597656 2.742188 -4.507812 2.953125 -4.4375 C 3.171875 -4.375 3.484375 -4.304688 3.890625 -4.234375 C 4.253906 -4.179688 4.59375 -4.109375 4.90625 -4.015625 C 5.21875 -3.929688 5.492188 -3.804688 5.734375 -3.640625 C 5.972656 -3.484375 6.15625 -3.28125 6.28125 -3.03125 C 6.414062 -2.78125 6.484375 -2.46875 6.484375 -2.09375 C 6.484375 -1.570312 6.351562 -1.140625 6.09375 -0.796875 C 5.84375 -0.460938 5.492188 -0.207031 5.046875 -0.03125 C 4.597656 0.132812 4.085938 0.21875 3.515625 0.21875 Z M 3.515625 0.21875 "/></g></g></g><g fill="#ffffff" fill-opacity="1"><g transform="translate(115.539152, 11.120031)"><g><path d="M 1.796875 -8.171875 C 1.472656 -8.171875 1.21875 -8.257812 1.03125 -8.4375 C 0.851562 -8.625 0.765625 -8.851562 0.765625 -9.125 C 0.765625 -9.375 0.851562 -9.59375 1.03125 -9.78125 C 1.21875 -9.976562 1.472656 -10.078125 1.796875 -10.078125 C 2.128906 -10.078125 2.382812 -9.976562 2.5625 -9.78125 C 2.75 -9.59375 2.84375 -9.375 2.84375 -9.125 C 2.84375 -8.851562 2.75 -8.625 2.5625 -8.4375 C 2.382812 -8.257812 2.128906 -8.171875 1.796875 -8.171875 Z M 2.640625 0 L 0.96875 0 L 0.96875 -7.0625 L 2.640625 -7.0625 Z M 2.640625 0 "/></g></g></g><g fill="#ffffff" fill-opacity="1"><g transform="translate(119.145703, 11.120031)"><g><path d="M 4.125 0.21875 C 3.59375 0.21875 3.101562 0.117188 2.65625 -0.078125 C 2.21875 -0.273438 1.832031 -0.546875 1.5 -0.890625 C 1.175781 -1.234375 0.921875 -1.628906 0.734375 -2.078125 C 0.554688 -2.535156 0.46875 -3.019531 0.46875 -3.53125 C 0.46875 -4.039062 0.554688 -4.519531 0.734375 -4.96875 C 0.921875 -5.425781 1.175781 -5.828125 1.5 -6.171875 C 1.832031 -6.523438 2.21875 -6.796875 2.65625 -6.984375 C 3.101562 -7.179688 3.59375 -7.28125 4.125 -7.28125 C 4.726562 -7.28125 5.269531 -7.160156 5.75 -6.921875 C 6.226562 -6.691406 6.628906 -6.367188 6.953125 -5.953125 C 7.273438 -5.546875 7.503906 -5.085938 7.640625 -4.578125 L 5.953125 -4.578125 C 5.796875 -4.960938 5.550781 -5.25 5.21875 -5.4375 C 4.894531 -5.632812 4.53125 -5.734375 4.125 -5.734375 C 3.875 -5.734375 3.628906 -5.679688 3.390625 -5.578125 C 3.148438 -5.484375 2.929688 -5.34375 2.734375 -5.15625 C 2.546875 -4.96875 2.394531 -4.738281 2.28125 -4.46875 C 2.175781 -4.195312 2.125 -3.882812 2.125 -3.53125 C 2.125 -3.1875 2.175781 -2.875 2.28125 -2.59375 C 2.394531 -2.320312 2.546875 -2.09375 2.734375 -1.90625 C 2.929688 -1.71875 3.148438 -1.570312 3.390625 -1.46875 C 3.628906 -1.375 3.875 -1.328125 4.125 -1.328125 C 4.53125 -1.328125 4.894531 -1.425781 5.21875 -1.625 C 5.550781 -1.820312 5.796875 -2.140625 5.953125 -2.578125 L 7.640625 -2.578125 C 7.515625 -2.035156 7.289062 -1.550781 6.96875 -1.125 C 6.644531 -0.707031 6.238281 -0.378906 5.75 -0.140625 C 5.269531 0.0976562 4.726562 0.21875 4.125 0.21875 Z M 4.125 0.21875 "/></g></g></g></g></g></svg>